<svg xmlns="http://www.w3.org/2000/svg" width="1440" height="1414" viewBox="0 0 1440 1414" font-family="Pretendard, 'Apple SD Gothic Neo', 'Noto Sans KR', sans-serif"><rect width="1440" height="1414" fill="#fff"/><rect x="0" y="0" width="1440" height="64" fill="#fff"/><line x1="0" y1="64" x2="1440" y2="64" stroke="#e2e8f0"/><rect x="24" y="22" width="20" height="20" rx="3" fill="#2563eb"/><text x="52" y="38" font-size="16" font-weight="700" fill="#0f172a">브랜드</text><text x="580" y="38" font-size="14" fill="#334155">홈</text><text x="650" y="38" font-size="14" fill="#334155">안내</text><text x="720" y="38" font-size="14" fill="#334155">리뷰</text><text x="790" y="38" font-size="14" fill="#334155">상품</text><text x="860" y="38" font-size="14" fill="#334155">문의</text><rect x="1300" y="16" width="116" height="32" rx="4" fill="#2563eb"/><text x="1358" y="37" font-size="13" fill="#fff" text-anchor="middle">상담 신청</text><rect x="0" y="64" width="1440" height="970" fill="#fff"/><text x="96" y="124" font-size="28" font-weight="700" fill="#0f172a">고객 리뷰</text><rect x="96" y="164" width="614" height="150" rx="6" fill="#f1f5f9"/><circle cx="132" cy="200" r="18" fill="#cbd5e1"/><rect x="160" y="190" width="120" height="12" rx="2" fill="#0f172a"/><text x="160" y="222" font-size="13" fill="#0ea5e9">★★★★★</text><rect x="116" y="244" width="521.9" height="10" rx="2" fill="#cbd5e1"/><rect x="116" y="264" width="521.9" height="10" rx="2" fill="#cbd5e1"/><rect x="116" y="284" width="307" height="10" rx="2" fill="#cbd5e1"/><rect x="730" y="164" width="614" height="150" rx="6" fill="#f1f5f9"/><circle cx="766" cy="200" r="18" fill="#cbd5e1"/><rect x="794" y="190" width="120" height="12" rx="2" fill="#0f172a"/><text x="794" y="222" font-size="13" fill="#0ea5e9">★★★★★</text><rect x="750" y="244" width="521.9" height="10" rx="2" fill="#cbd5e1"/><rect x="750" y="264" width="521.9" height="10" rx="2" fill="#cbd5e1"/><rect x="750" y="284" width="307" height="10" rx="2" fill="#cbd5e1"/><rect x="96" y="334" width="614" height="150" rx="6" fill="#f1f5f9"/><circle cx="132" cy="370" r="18" fill="#cbd5e1"/><rect x="160" y="360" width="120" height="12" rx="2" fill="#0f172a"/><text x="160" y="392" font-size="13" fill="#0ea5e9">★★★★★</text><rect x="116" y="414" width="521.9" height="10" rx="2" fill="#cbd5e1"/><rect x="116" y="434" width="521.9" height="10" rx="2" fill="#cbd5e1"/><rect x="116" y="454" width="307" height="10" rx="2" fill="#cbd5e1"/><rect x="730" y="334" width="614" height="150" rx="6" fill="#f1f5f9"/><circle cx="766" cy="370" r="18" fill="#cbd5e1"/><rect x="794" y="360" width="120" height="12" rx="2" fill="#0f172a"/><text x="794" y="392" font-size="13" fill="#0ea5e9">★★★★★</text><rect x="750" y="414" width="521.9" height="10" rx="2" fill="#cbd5e1"/><rect x="750" y="434" width="521.9" height="10" rx="2" fill="#cbd5e1"/><rect x="750" y="454" width="307" height="10" rx="2" fill="#cbd5e1"/><rect x="96" y="504" width="614" height="150" rx="6" fill="#f1f5f9"/><circle cx="132" cy="540" r="18" fill="#cbd5e1"/><rect x="160" y="530" width="120" height="12" rx="2" fill="#0f172a"/><text x="160" y="562" font-size="13" fill="#0ea5e9">★★★★★</text><rect x="116" y="584" width="521.9" height="10" rx="2" fill="#cbd5e1"/><rect x="116" y="604" width="521.9" height="10" rx="2" fill="#cbd5e1"/><rect x="116" y="624" width="307" height="10" rx="2" fill="#cbd5e1"/><rect x="730" y="504" width="614" height="150" rx="6" fill="#f1f5f9"/><circle cx="766" cy="540" r="18" fill="#cbd5e1"/><rect x="794" y="530" width="120" height="12" rx="2" fill="#0f172a"/><text x="794" y="562" font-size="13" fill="#0ea5e9">★★★★★</text><rect x="750" y="584" width="521.9" height="10" rx="2" fill="#cbd5e1"/><rect x="750" y="604" width="521.9" height="10" rx="2" fill="#cbd5e1"/><rect x="750" y="624" width="307" height="10" rx="2" fill="#cbd5e1"/><rect x="96" y="674" width="614" height="150" rx="6" fill="#f1f5f9"/><circle cx="132" cy="710" r="18" fill="#cbd5e1"/><rect x="160" y="700" width="120" height="12" rx="2" fill="#0f172a"/><text x="160" y="732" font-size="13" fill="#0ea5e9">★★★★★</text><rect x="116" y="754" width="521.9" height="10" rx="2" fill="#cbd5e1"/><rect x="116" y="774" width="521.9" height="10" rx="2" fill="#cbd5e1"/><rect x="116" y="794" width="307" height="10" rx="2" fill="#cbd5e1"/><rect x="730" y="674" width="614" height="150" rx="6" fill="#f1f5f9"/><circle cx="766" cy="710" r="18" fill="#cbd5e1"/><rect x="794" y="700" width="120" height="12" rx="2" fill="#0f172a"/><text x="794" y="732" font-size="13" fill="#0ea5e9">★★★★★</text><rect x="750" y="754" width="521.9" height="10" rx="2" fill="#cbd5e1"/><rect x="750" y="774" width="521.9" height="10" rx="2" fill="#cbd5e1"/><rect x="750" y="794" width="307" height="10" rx="2" fill="#cbd5e1"/><rect x="96" y="844" width="614" height="150" rx="6" fill="#f1f5f9"/><circle cx="132" cy="880" r="18" fill="#cbd5e1"/><rect x="160" y="870" width="120" height="12" rx="2" fill="#0f172a"/><text x="160" y="902" font-size="13" fill="#0ea5e9">★★★★★</text><rect x="116" y="924" width="521.9" height="10" rx="2" fill="#cbd5e1"/><rect x="116" y="944" width="521.9" height="10" rx="2" fill="#cbd5e1"/><rect x="116" y="964" width="307" height="10" rx="2" fill="#cbd5e1"/><rect x="730" y="844" width="614" height="150" rx="6" fill="#f1f5f9"/><circle cx="766" cy="880" r="18" fill="#cbd5e1"/><rect x="794" y="870" width="120" height="12" rx="2" fill="#0f172a"/><text x="794" y="902" font-size="13" fill="#0ea5e9">★★★★★</text><rect x="750" y="924" width="521.9" height="10" rx="2" fill="#cbd5e1"/><rect x="750" y="944" width="521.9" height="10" rx="2" fill="#cbd5e1"/><rect x="750" y="964" width="307" height="10" rx="2" fill="#cbd5e1"/><rect x="0" y="1034" width="1440" height="200" fill="#2563eb"/><text x="252" y="1124" font-size="36" font-weight="800" fill="#fff" text-anchor="middle">1200</text><text x="252" y="1159" font-size="14" fill="#bfdbfe" text-anchor="middle">고객</text><text x="564" y="1124" font-size="36" font-weight="800" fill="#fff" text-anchor="middle">98</text><text x="564" y="1159" font-size="14" fill="#bfdbfe" text-anchor="middle">만족도 %</text><text x="876" y="1124" font-size="36" font-weight="800" fill="#fff" text-anchor="middle">24</text><text x="876" y="1159" font-size="14" fill="#bfdbfe" text-anchor="middle">시간 지원</text><text x="1188" y="1124" font-size="36" font-weight="800" fill="#fff" text-anchor="middle">4.9</text><text x="1188" y="1159" font-size="14" fill="#bfdbfe" text-anchor="middle">평점</text><rect x="0" y="1234" width="1440" height="180" fill="#0f172a"/><rect x="96" y="1274" width="18" height="18" rx="3" fill="#0ea5e9"/><text x="122" y="1289" font-size="15" font-weight="700" fill="#fff">브랜드</text><rect x="96" y="1318" width="320" height="9" rx="2" fill="#475569"/><rect x="96" y="1338" width="320" height="9" rx="2" fill="#475569"/><rect x="96" y="1358" width="320" height="9" rx="2" fill="#475569"/><text x="924" y="1289" font-size="13" fill="#94a3b8">회사소개</text><text x="1034" y="1289" font-size="13" fill="#94a3b8">이용약관</text><text x="1144" y="1289" font-size="13" fill="#94a3b8">개인정보처리방침</text><text x="1254" y="1289" font-size="13" fill="#94a3b8">고객센터</text></svg>