<svg xmlns="http://www.w3.org/2000/svg" width="800" height="600" viewBox="0 0 800 600" font-family="Pretendard, 'Noto Sans KR', sans-serif"><rect width="800" height="600" fill="#fff"/><rect x="0" y="0" width="800" height="48" fill="#fff"/><line x1="0" y1="48" x2="800" y2="48" stroke="#e2e8f0"/><rect x="24" y="16" width="16" height="16" rx="3" fill="#2563eb"/><rect x="320" y="20" width="32" height="8" rx="2" fill="#cbd5e1"/><rect x="370" y="20" width="32" height="8" rx="2" fill="#cbd5e1"/><rect x="420" y="20" width="32" height="8" rx="2" fill="#cbd5e1"/><rect x="470" y="20" width="32" height="8" rx="2" fill="#cbd5e1"/><rect x="60" y="90" width="680" height="240" rx="6" fill="#eff6ff"/><text x="400" y="220" font-size="40" font-weight="800" fill="#0f172a" text-anchor="middle">법률 · 세무</text><rect x="60" y="370" width="164" height="190" rx="6" fill="#f1f5f9" stroke="#e2e8f0"/><rect x="232" y="370" width="164" height="190" rx="6" fill="#f1f5f9" stroke="#e2e8f0"/><rect x="404" y="370" width="164" height="190" rx="6" fill="#f1f5f9" stroke="#e2e8f0"/><rect x="576" y="370" width="164" height="190" rx="6" fill="#f1f5f9" stroke="#e2e8f0"/></svg>