<svg xmlns="http://www.w3.org/2000/svg" width="800" height="600" viewBox="0 0 800 600" font-family="Pretendard, 'Noto Sans KR', sans-serif"><rect width="800" height="600" fill="#fff"/><rect x="0" y="0" width="800" height="48" fill="#fff"/><line x1="0" y1="48" x2="800" y2="48" stroke="#e2e8f0"/><rect x="24" y="16" width="16" height="16" rx="3" fill="#2563eb"/><rect x="320" y="20" width="32" height="8" rx="2" fill="#cbd5e1"/><rect x="370" y="20" width="32" height="8" rx="2" fill="#cbd5e1"/><rect x="420" y="20" width="32" height="8" rx="2" fill="#cbd5e1"/><rect x="470" y="20" width="32" height="8" rx="2" fill="#cbd5e1"/><rect x="0" y="48" width="800" height="300" fill="#e0f2fe"/><text x="60" y="160" font-size="40" font-weight="800" fill="#0f172a">뷰티 · 네일</text><rect x="60" y="190" width="300" height="10" rx="2" fill="#cbd5e1"/><rect x="60" y="240" width="120" height="40" rx="4" fill="#2563eb"/><rect x="60" y="380" width="210" height="180" rx="6" fill="#f1f5f9" stroke="#e2e8f0"/><rect x="295" y="380" width="210" height="180" rx="6" fill="#f1f5f9" stroke="#e2e8f0"/><rect x="530" y="380" width="210" height="180" rx="6" fill="#f1f5f9" stroke="#e2e8f0"/></svg>